<svg xmlns="http://www.w3.org/2000/svg" width="26.59" height="21.156" viewBox="0 0 26.59 21.156">
  <metadata><?xpacket begin="﻿" id="W5M0MpCehiHzreSzNTczkc9d"?>
<x:xmpmeta xmlns:x="adobe:ns:meta/" x:xmptk="Adobe XMP Core 5.6-c138 79.159824, 2016/09/14-01:09:01        ">
   <rdf:RDF xmlns:rdf="http://www.w3.org/1999/02/22-rdf-syntax-ns#">
      <rdf:Description rdf:about=""/>
   </rdf:RDF>
</x:xmpmeta>
                                                                                                    
                                                                                                    
                                                                                                    
                                                                                                    
                                                                                                    
                                                                                                    
                                                                                                    
                                                                                                    
                                                                                                    
                                                                                                    
                                                                                                    
                                                                                                    
                                                                                                    
                                                                                                    
                                                                                                    
                                                                                                    
                                                                                                    
                                                                                                    
                                                                                                    
                                                                                                    
                           
<?xpacket end="w"?></metadata>
<defs>
    <style>
      .cls-1 {
        fill: #62c5e2;
        fill-rule: evenodd;
      }
    </style>
  </defs>
  <path id="Forma_1" data-name="Forma 1" class="cls-1" d="M2776.58,861.364a11.1,11.1,0,0,1-3.14.826,5.229,5.229,0,0,0,2.4-2.94,10.922,10.922,0,0,1-3.46,1.288,5.548,5.548,0,0,0-7.84-.124,5.1,5.1,0,0,0-1.59,3.774,6.541,6.541,0,0,0,.13,1.223,15.607,15.607,0,0,1-11.23-5.584,5.19,5.19,0,0,0-.74,2.693,5.1,5.1,0,0,0,.66,2.544,5.394,5.394,0,0,0,1.77,1.9,5.46,5.46,0,0,1-2.46-.677v0.066a5.074,5.074,0,0,0,1.24,3.395,5.37,5.37,0,0,0,3.12,1.842,5.674,5.674,0,0,1-1.43.181,7.1,7.1,0,0,1-1.03-.082,5.211,5.211,0,0,0,1.93,2.635,5.384,5.384,0,0,0,3.17,1.066,10.834,10.834,0,0,1-6.77,2.279,11.81,11.81,0,0,1-1.31-.066,15.358,15.358,0,0,0,8.36,2.395,16.229,16.229,0,0,0,5.45-.9,13.856,13.856,0,0,0,4.35-2.412,16.282,16.282,0,0,0,3.11-3.478,15.166,15.166,0,0,0,1.95-4.1,14.779,14.779,0,0,0,.64-4.287,6.392,6.392,0,0,0-.02-0.694A11.393,11.393,0,0,0,2776.58,861.364Z" transform="translate(-2750 -858.844)"/>
</svg>
