<svg xmlns="http://www.w3.org/2000/svg" width="24" height="25" viewBox="0 0 24 25">
  <metadata><?xpacket begin="﻿" id="W5M0MpCehiHzreSzNTczkc9d"?>
<x:xmpmeta xmlns:x="adobe:ns:meta/" x:xmptk="Adobe XMP Core 5.6-c138 79.159824, 2016/09/14-01:09:01        ">
   <rdf:RDF xmlns:rdf="http://www.w3.org/1999/02/22-rdf-syntax-ns#">
      <rdf:Description rdf:about=""/>
   </rdf:RDF>
</x:xmpmeta>
                                                                                                    
                                                                                                    
                                                                                                    
                                                                                                    
                                                                                                    
                                                                                                    
                                                                                                    
                                                                                                    
                                                                                                    
                                                                                                    
                                                                                                    
                                                                                                    
                                                                                                    
                                                                                                    
                                                                                                    
                                                                                                    
                                                                                                    
                                                                                                    
                                                                                                    
                                                                                                    
                           
<?xpacket end="w"?></metadata>
<defs>
    <style>
      .cls-1 {
        fill: #62c5e2;
        fill-rule: evenodd;
      }
    </style>
  </defs>
  <path id="Forma_1" data-name="Forma 1" class="cls-1" d="M2910.99,870.41v7.376a2.591,2.591,0,0,1-.31,1.266,3.381,3.381,0,0,1-.86,1.02,4.152,4.152,0,0,1-1.24.689,4.666,4.666,0,0,1-1.54.251h-16.1a4.59,4.59,0,0,1-1.52-.251,4.033,4.033,0,0,1-1.24-.689,3.381,3.381,0,0,1-.86-1.02,2.591,2.591,0,0,1-.31-1.266V870.41a2.634,2.634,0,0,1,.31-1.251,3.206,3.206,0,0,1,.86-1.025,4.461,4.461,0,0,1,2.76-.949h16.11a4.463,4.463,0,0,1,1.52.26,4.355,4.355,0,0,1,1.25.689,3.1,3.1,0,0,1,.86,1.025A2.634,2.634,0,0,1,2910.99,870.41Zm-18.97,8.2v-7.78h1.97v-1.175h-5.33V870.8h1.71v7.813h1.65Zm0.8-18.1-2.2-4.519h1.92l1.1,3.377,1.09-3.377h1.92l-2.07,4.519v5.262h-1.76v-5.262Zm5.19,11.46h-1.65v4.153c0,0.3.01,0.535,0.02,0.695a0.359,0.359,0,0,1-.07.312,0.6,0.6,0,0,1-.43.395c-0.23.082-.4-0.035-0.53-0.361a0.966,0.966,0,0,1-.01-0.326c0.01-.176.01-0.4,0.01-0.684l-0.03-4.184h-1.65l0.04,4.119c0,0.324-.01.593-0.02,0.813a1.809,1.809,0,0,0,.02.5c0.02,0.182.04,0.373,0.07,0.581a0.629,0.629,0,0,0,.34.5,1.3,1.3,0,0,0,.67.17,2.357,2.357,0,0,0,.75-0.121,2.8,2.8,0,0,0,.69-0.325,1.491,1.491,0,0,0,.45-0.446l-0.03.821,1.36,0.033v-6.636ZM2896.5,861.2a5.824,5.824,0,0,1,.18-1.528,1.562,1.562,0,0,1,.71-0.893,2.109,2.109,0,0,1,1.24-.337,2.769,2.769,0,0,1,1.11.2,1.5,1.5,0,0,1,.73.588,2.056,2.056,0,0,1,.33.691,4.859,4.859,0,0,1,.1,1.127v1.761a6.473,6.473,0,0,1-.1,1.382,2.017,2.017,0,0,1-.36.856,1.622,1.622,0,0,1-.7.554,2.508,2.508,0,0,1-1.03.2,3.237,3.237,0,0,1-1.07-.168,1.152,1.152,0,0,1-.67-0.485,2.4,2.4,0,0,1-.36-0.759,6.549,6.549,0,0,1-.11-1.377V861.2Zm1.48,2.738a0.664,0.664,0,0,0,.21.48,0.727,0.727,0,0,0,.52.208,0.741,0.741,0,0,0,.51-0.2,0.631,0.631,0,0,0,.23-0.486v-3.647a0.675,0.675,0,0,0-.23-0.51,0.709,0.709,0,0,0-.51-0.212,0.726,0.726,0,0,0-.51.212,0.666,0.666,0,0,0-.22.51v3.647Zm5.36,12.77v-3.444a1.485,1.485,0,0,0-.75-1.411,1.194,1.194,0,0,0-.57-0.135,2.56,2.56,0,0,0-1.37.521v-2.587H2899v8.888l1.37-.033,0.1-.555a3.187,3.187,0,0,0,1.2.64,1.239,1.239,0,0,0,.9-0.093,1.41,1.41,0,0,0,.57-0.69A2.9,2.9,0,0,0,2903.34,876.71Zm-1.99-4.133a0.829,0.829,0,0,1,.51.161,0.454,0.454,0,0,1,.23.36V877a0.437,0.437,0,0,1-.23.352,0.926,0.926,0,0,1-1.02,0,0.421,0.421,0,0,1-.22-0.352v-3.9a0.438,0.438,0,0,1,.22-0.36A0.85,0.85,0,0,1,2901.35,872.577Zm0.77-7.493a0.952,0.952,0,0,1-.08-0.279c-0.02-.093-0.04-0.188-0.06-0.276a2.729,2.729,0,0,1-.03-0.456v-5.357h1.54v5.342a0.461,0.461,0,0,0,.16.354,0.614,0.614,0,0,0,.43.151,0.65,0.65,0,0,0,.43-0.151,0.45,0.45,0,0,0,.18-0.354v-5.342h1.44v6.856h-1.83l0.03-.554a3.114,3.114,0,0,1-.48.519,1.218,1.218,0,0,1-.63.169,1.274,1.274,0,0,1-.68-0.169A1.3,1.3,0,0,1,2902.12,865.084Zm6.43,11.191h-1.24v0.755a0.5,0.5,0,0,1-.2.42,0.828,0.828,0,0,1-.49.149h-0.26a0.71,0.71,0,0,1-.47-0.149,0.506,0.506,0,0,1-.2-0.42v-1.6h2.86v-0.925c0-.345-0.01-0.679-0.02-1a3.268,3.268,0,0,0-.09-0.746,1.053,1.053,0,0,0-.44-0.733,2.048,2.048,0,0,0-.86-0.375,2.892,2.892,0,0,0-1.01-.035,2.042,2.042,0,0,0-.88.318,1.723,1.723,0,0,0-.7.825,3.74,3.74,0,0,0-.22,1.445v2.068a2.19,2.19,0,0,0,.74,1.864,2.316,2.316,0,0,0,1.43.52h0.15a2.277,2.277,0,0,0,1.49-.672,1.57,1.57,0,0,0,.49-1.192C2908.61,876.639,2908.59,876.463,2908.55,876.275Zm-1.28-1.968h-1.57l0.03-.821a0.547,0.547,0,0,1,.22-0.448,0.778,0.778,0,0,1,.52-0.176h0.07a0.914,0.914,0,0,1,.55.168,0.534,0.534,0,0,1,.22.456Z" transform="translate(-2887 -856)"/>
</svg>
