<svg id="Layer_1" data-name="Layer 1" xmlns="http://www.w3.org/2000/svg" viewBox="0 0 7.46 11.53">
  <defs>
    <style>
      .cls-1 {
        fill: #fa8d29;
      }
    </style>
  </defs>
  <title>phone</title>
  <path class="cls-1" d="M-137.06,233.16v11.53h7.46V233.16h-7.46Zm7,11h-6.48v-1.85h6.48v1.85Zm0-2.34h-6.48v-8.21h6.48v8.21Zm-3.24,2.3a0.84,0.84,0,0,0,.84-0.84,0.84,0.84,0,0,0-.84-0.84,0.84,0.84,0,0,0-.84.84A0.84,0.84,0,0,0-133.33,244.16Zm0-1.18a0.35,0.35,0,0,1,.35.35,0.35,0.35,0,0,1-.35.35,0.35,0.35,0,0,1-.35-0.35A0.35,0.35,0,0,1-133.33,243Z" transform="translate(137.06 -233.16)"/>
</svg>
