<svg id="Layer_1" data-name="Layer 1" xmlns="http://www.w3.org/2000/svg" viewBox="0 0 9.8 9.85">
  <defs>
    <style>
      .cls-1 {
        fill: #fa8d29;
      }
    </style>
  </defs>
  <title>pin</title>
  <path class="cls-1" d="M-24.18,313.28l-0.67.66,0.83,1.35-2,1.85-0.39-.4a1.5,1.5,0,0,0-1.08-.47,2.28,2.28,0,0,0-1.42.63l-0.18.18,2.3,2.3,0.1,0.1L-30,322.78l0.35,0.35,3.31-3.3,0,0,2.24,2.24,0.18-.18a2.25,2.25,0,0,0,.63-1.42,1.51,1.51,0,0,0-.48-1.08l-0.33-.33,1.85-2,1.35,0.83,0.66-.67Zm3.22,4-1.37-.84-2.44,2.69,0.66,0.67a1,1,0,0,1,.33.73,1.44,1.44,0,0,1-.24.74l-0.09.13L-26,319.51l-0.49-.49-0.18.18,0.18-.18-1.93-1.93a1.61,1.61,0,0,1,.87-0.33,1,1,0,0,1,.72.33l0.73,0.73,2.69-2.45L-24.22,314l0,0,3.25,3.25Z" transform="translate(30.03 -313.28)"/>
</svg>
