<svg xmlns="http://www.w3.org/2000/svg" width="31" height="31" viewBox="0 0 31 31">
  <metadata><?xpacket begin="﻿" id="W5M0MpCehiHzreSzNTczkc9d"?>
<x:xmpmeta xmlns:x="adobe:ns:meta/" x:xmptk="Adobe XMP Core 5.6-c138 79.159824, 2016/09/14-01:09:01        ">
   <rdf:RDF xmlns:rdf="http://www.w3.org/1999/02/22-rdf-syntax-ns#">
      <rdf:Description rdf:about=""/>
   </rdf:RDF>
</x:xmpmeta>
<?xpacket end="w"?></metadata>
<defs>
    <style>
      .cls-1 {
        fill: #fff;
        fill-rule: evenodd;
      }
    </style>
  </defs>
  <path id="share" class="cls-1" d="M1011.03,873.224a13.8,13.8,0,0,0-6.25-14.961,0.537,0.537,0,0,0-.57.91,12.743,12.743,0,0,1,5.81,13.681A3.752,3.752,0,1,0,1011.03,873.224Zm-8.63,8.735a12.819,12.819,0,0,1-14-2.818,3.737,3.737,0,1,0-.855.65,13.883,13.883,0,0,0,15.261,3.156A0.535,0.535,0,1,0,1002.4,881.959Zm-18.261-12.276h0.036a0.534,0.534,0,0,0,.534-0.5,12.763,12.763,0,0,1,9.2-11.393,3.737,3.737,0,1,0-.153-1.067,13.83,13.83,0,0,0-10.117,12.385A0.535,0.535,0,0,0,984.139,869.683Z" transform="translate(-982 -853)"/>
</svg>
